<?xml version="1.0" encoding="utf-8"?>
<!-- Generator: Adobe Illustrator 16.0.3, SVG Export Plug-In . SVG Version: 6.00 Build 0)  -->
<!DOCTYPE svg PUBLIC "-//W3C//DTD SVG 1.1//EN" "http://www.w3.org/Graphics/SVG/1.1/DTD/svg11.dtd">
<svg version="1.1" id="Capa_1" xmlns="http://www.w3.org/2000/svg" xmlns:xlink="http://www.w3.org/1999/xlink" x="0px" y="0px"
	 width="911px" height="927px" viewBox="0 0 911 927" enable-background="new 0 0 911 927" xml:space="preserve">
<g>
	<path fill-rule="evenodd" clip-rule="evenodd" fill="#FE4D00" d="M766.571,354.669c0,76.157-0.021,152.314,0.016,228.473
		c0.009,17.503-3.624,34.087-12.897,49.031c-18.097,29.164-44.671,44.232-78.832,44.288c-153.814,0.251-307.629,0.207-461.444,0.051
		c-46.755-0.048-83.277-31.585-90.87-77.839c-0.857-5.224-0.824-10.63-0.825-15.951c-0.041-152.481,0.047-304.963-0.109-457.444
		c-0.027-26.325,8.36-49.102,27.042-67.527c18.401-18.147,40.96-26.226,66.897-26.149c81.822,0.241,163.646,0.089,245.47,0.089
		c70.491,0,140.983,0.128,211.474-0.077c21.378-0.063,40.836,5.313,57.862,18.296c20.742,15.816,32.598,36.879,35.514,62.822
		c0.612,5.446,0.671,10.975,0.674,16.466C766.584,204.354,766.571,279.512,766.571,354.669z"/>
	<path fill-rule="evenodd" clip-rule="evenodd" d="M609.527,896.209c-22.613-0.154-41.252-2.581-58.416-11.961
		c-20.032-10.946-31.014-27.6-32.37-50.53c-0.94-15.904,2.091-30.559,11.979-43.539c9.412-12.357,21.982-19.873,36.575-23.854
		c28.555-7.789,57.034-7.594,85.145,2.506c25.117,9.024,40.427,31.118,40.909,57.715c0.344,18.999-4.796,35.62-18.954,48.632
		c-11.715,10.766-26.219,15.993-41.616,18.834C623.974,895.636,615.066,896.547,609.527,896.209z"/>
	<path fill-rule="evenodd" clip-rule="evenodd" d="M500.254,893.004c-10.394,0-20.123-0.68-29.703,0.224
		c-7.17,0.676-10.772-2.925-14.608-7.676c-10.354-12.825-20.924-25.476-31.353-38.24c-1.383-1.692-2.899-2.331-5.099-2.309
		c-10.832,0.108-21.668,0.175-32.497-0.029c-3.168-0.06-3.86,0.919-3.822,3.939c0.167,13.331-0.022,26.666,0.142,39.997
		c0.039,3.128-0.596,4.295-4.016,4.183c-8.324-0.272-16.671-0.295-24.993,0.006c-3.698,0.133-4.665-0.787-4.648-4.587
		c0.165-37.164,0.091-74.33,0.112-111.496c0.003-4.141-1.409-9.718,0.694-12.048c2.478-2.745,8.155-0.84,12.434-0.854
		c23.999-0.084,48.001-0.249,71.996,0.059c10.02,0.129,20.05,0.923,29.644,4.6c18.818,7.212,24.776,23.104,23.118,40.868
		c-1.381,14.792-10.203,24.427-23.672,30.154c-4.898,2.083-4.91,2.845-1.601,6.795c11.973,14.297,23.911,28.621,35.833,42.959
		C498.909,890.383,499.341,891.435,500.254,893.004z"/>
	<path fill-rule="evenodd" clip-rule="evenodd" d="M154.018,799.211c-23.253-10.519-47.112-13.658-71.694-12.074
		c-5.402,0.348-10.871,0.891-15.744,3.762c-4.39,2.586-5.018,7.027-1.406,10.599c4.095,4.049,9.616,4.946,14.803,6.262
		c15.454,3.919,31.295,6.329,46.485,11.242c12.715,4.112,24.948,9.073,33.271,20.717c8.951,12.524,4.676,33.844-8.193,43.255
		c-10.284,7.52-22.231,10.275-34.489,12.039c-10.403,1.497-20.902,1.266-31.367,1.006c-18.097-0.451-35.679-3.782-52.822-9.668
		c-2.745-0.942-3.157-2.28-3.132-4.658c0.075-7.164,0.131-14.332-0.022-21.495c-0.065-3.022,0.467-3.847,3.514-2.356
		c21.291,10.413,44.026,13.597,67.43,12.848c6.745-0.217,13.509-1.059,20.058-2.935c6.962-1.994,10.913-7.075,9.064-12.479
		c-1.794-5.245-7.037-6.606-11.655-8.034c-14.493-4.48-29.609-6.345-44.26-10.171c-10.34-2.701-20.298-6.202-29.693-11.687
		c-21.813-12.732-19.833-42.652,2.187-54.749c9.33-5.126,19.404-7.345,29.683-8.565c25.167-2.991,49.725,0.619,73.936,7.603
		c3.167,0.914,4.21,2.109,4.119,5.335C153.868,782.83,154.018,790.664,154.018,799.211z"/>
	<path fill-rule="evenodd" clip-rule="evenodd" d="M877.811,764.072c-15.057,10.791-29.01,20.825-42.999,30.809
		c-13.223,9.438-26.458,18.858-39.748,28.2c-2.85,2.003-2.996,3.699-0.174,5.736c25.42,18.353,50.833,36.715,76.244,55.079
		c3.832,2.77,7.647,5.563,11.688,8.505c-1.523,1.01-3.021,0.57-4.396,0.578c-8.496,0.049-16.992,0.024-25.488,0.024
		c-18.651,0-18.497-0.201-33.115-11.305c-17.931-13.619-36.133-26.881-54.286-40.203c-1.072-0.787-2.508-2.218-4.027-1.276
		c-1.258,0.78-0.55,2.44-0.554,3.688c-0.045,14.659-0.193,29.322,0.073,43.977c0.078,4.312-1.355,5.344-5.4,5.205
		c-8.319-0.285-16.658-0.199-24.983-0.023c-2.869,0.061-3.987-0.396-3.977-3.708c0.134-40.48,0.118-80.962,0.022-121.441
		c-0.007-2.979,0.614-4.014,3.804-3.926c8.656,0.238,17.327,0.237,25.983,0.006c3.53-0.094,4.572,1.009,4.523,4.526
		c-0.186,13.491-0.092,26.986-0.047,40.479c0.004,1.253-0.703,2.948,0.527,3.692c1.594,0.966,2.654-0.741,3.842-1.555
		c21.916-15.014,43.85-30.001,65.725-45.076c1.86-1.282,3.669-2.02,5.919-2.013C850.113,764.094,863.26,764.072,877.811,764.072z"/>
	<path fill-rule="evenodd" clip-rule="evenodd" d="M253.441,764.072c22.493,0,44.987,0.077,67.479-0.081
		c3.444-0.024,4.592,0.772,4.41,4.344c-0.312,6.149-0.38,12.345,0.019,18.483c0.26,4.006-1.258,4.549-4.766,4.506
		c-15.16-0.187-30.328,0.111-45.483-0.201c-4.351-0.089-5.057,1.262-5.034,5.252c0.174,30.49-0.03,60.982,0.23,91.471
		c0.04,4.637-1.356,5.431-5.509,5.254c-7.817-0.332-15.667-0.311-23.485-0.002c-3.703,0.146-4.667-0.792-4.646-4.587
		c0.178-30.823,0.028-61.647,0.191-92.471c0.02-3.839-0.854-4.965-4.829-4.899c-15.491,0.254-30.99,0.011-46.483,0.181
		c-3.115,0.034-3.978-0.798-3.853-3.881c0.25-6.154,0.29-12.337-0.006-18.487c-0.18-3.751,0.695-5.03,4.787-4.989
		C208.787,764.192,231.114,764.072,253.441,764.072z"/>
	<path fill-rule="evenodd" clip-rule="evenodd" fill="#FEFEFE" d="M443.967,647.994c-77.157,0-154.315,0.052-231.473-0.04
		c-17.321-0.021-32.383-6.195-44.569-18.555c-12.075-12.248-17.829-27.317-17.847-44.424c-0.08-75.324-0.035-150.649-0.036-225.974
		c0-78.324-0.01-156.648,0.003-234.973c0.005-31.244,18.899-55.182,49.306-62.397c4.509-1.07,9.132-1.595,13.798-1.595
		c153.982,0.01,307.965-0.013,461.947,0.029c30.353,0.008,55.188,20.089,61.613,49.732c0.872,4.022,1.219,8.234,1.22,12.358
		c0.059,154.649,0.063,309.298,0.036,463.947c-0.005,31.064-22.723,56.729-53.618,61.09c-3.99,0.563-7.926,0.787-11.906,0.788
		C596.283,647.997,520.125,647.993,443.967,647.994z"/>
	<path fill-rule="evenodd" clip-rule="evenodd" fill="#FEFEFE" d="M605.365,788.069c11.807-0.354,22.089,0.743,31.857,5.137
		c9.622,4.327,16.791,10.713,19.837,21.261c2.751,9.53,2.868,19.016,0.124,28.436c-3.267,11.214-11.295,18.368-21.936,21.937
		c-21.096,7.076-42.3,7.12-62.882-2.088c-23.96-10.718-23.01-44.571-12.405-57.895c9.747-12.246,23.298-15.338,37.688-16.745
		C600.616,787.821,603.636,788.069,605.365,788.069z"/>
	<path fill-rule="evenodd" clip-rule="evenodd" fill="#FEFEFE" d="M413.012,818.985c-8.646,0-17.292-0.1-25.934,0.059
		c-2.734,0.05-3.781-0.594-3.699-3.54c0.206-7.31,0.056-14.628,0.078-21.943c0.004-1.567-0.549-3.447,2.227-3.375
		c18.922,0.498,37.889-1.112,56.768,1.003c5.134,0.575,9.665,2.625,10.681,8.653c0.987,5.868,1.451,11.688-3.905,15.891
		c-3.551,2.785-7.962,3.115-12.276,3.176c-7.979,0.112-15.959,0.032-23.938,0.032C413.012,818.955,413.012,818.971,413.012,818.985z
		"/>
	<path fill-rule="evenodd" clip-rule="evenodd" fill="#FE4D00" d="M384.691,429.117c-10.114-5.04-20.21-10.117-30.347-15.112
		c-31.35-15.448-62.69-30.919-94.114-46.215c-3.311-1.611-4.348-3.445-4.329-7.11c0.169-32.494,0.059-64.988,0.108-97.483
		c0.071-46.517,34.113-87.016,79.944-95.273c6.716-1.21,13.441-1.89,20.275-1.887c91.818,0.038,183.636,0.061,275.454-0.083
		c4.396-0.007,5.297,1.059,5.467,5.42c0.966,24.736-4.122,47.737-18.771,68.039c-17.538,24.308-41.095,38.706-70.999,42.709
		c-10.982,1.47-21.943,0.443-32.904,0.869c-1.746,0.067-3.496,0.01-5.444,0.01c0.338,2.527,2.114,2.521,3.281,3.099
		c39.863,19.7,79.72,39.419,119.665,58.953c3.695,1.807,5.189,3.669,5.157,8.025c-0.24,32.659-0.11,65.321-0.141,97.982
		c-0.042,45.965-35.304,87.405-80.646,94.837c-6.087,0.998-12.215,1.169-18.371,1.168c-92.317-0.026-184.636-0.051-276.953,0.078
		c-4.233,0.006-5.014-1.212-5.146-5.251c-0.836-25.444,4.732-48.953,20.144-69.624c16.475-22.097,38.252-35.614,65.483-40.348
		c12.217-2.123,24.521-1.789,36.822-1.856c2.064-0.012,4.129-0.002,6.193-0.002C384.578,429.747,384.635,429.433,384.691,429.117z"
		/>
	<path fill-rule="evenodd" clip-rule="evenodd" fill="#FEFEFE" d="M418.559,518.718c-42.323,0-84.646,0.001-126.97-0.002
		c-5.804-0.001-5.804-0.012-4.246-5.734c8.584-31.547,37.719-53.911,70.402-53.964c28.16-0.045,56.32,0.021,84.479-0.066
		c3.091-0.009,5.837,0.64,8.564,2.001c10.851,5.419,21.722,10.8,32.626,16.111c13.41,6.532,26.777,3.627,36.385-7.678
		c2.513-2.957,2.86-4.495-1.354-6.557c-76.009-37.176-151.907-74.576-227.918-111.747c-4.386-2.145-5.825-4.517-5.774-9.383
		c0.277-26.658,0.125-53.32,0.134-79.98c0.012-35.648,30.934-66.782,66.601-66.812c83.48-0.069,166.962,0.03,250.441-0.147
		c5.204-0.011,5.096,1.616,4.011,5.62c-8.483,31.281-37.255,53.701-69.879,53.909c-28.825,0.184-57.652,0.016-86.479,0.08
		c-2.441,0.006-4.524-0.676-6.645-1.732c-11.425-5.696-22.817-11.464-34.345-16.944c-12.915-6.14-28.108-1.957-35.98,9.309
		c-1.961,2.807-1.308,3.766,1.414,5.101c52.468,25.729,104.9,51.528,157.34,77.314c24.718,12.153,49.425,24.329,74.169,36.429
		c2.047,1.001,2.852,2.209,2.845,4.547c-0.081,28.327,0.366,56.661-0.164,84.979c-0.628,33.609-28.641,62.544-62.211,64.79
		c-20.961,1.402-41.973,0.386-62.961,0.525C461.55,518.829,440.054,518.718,418.559,518.718z"/>
</g>
</svg>
